# xmcd
#
# Track frame offsets:
#	150
#	17476
#	31594
#	45582
#	62389
#	77065
#	91994
#	109985
#	128176
#	144978
#	157454
#	172585
#	189763
#	205528
#	223462
#
# Disc length: 3184
#
# Revision: 1
# Processed by: cddbd v1.5.2PL0 Copyright (c) Steve Scherf et al.
# Submitted via: kJams Pro (development) 1.0patch51.39
#
DISCID=bd0c6e0f
DTITLE=Various Artist - CB60150
DYEAR=1998
DGENRE=Country
TTITLE0=Chesnutt, Mark - I Don't Want To Miss A Thing
TTITLE1=Yearwood, Trisha - Powerful Thing
TTITLE2=Alabama - Keepin' Up
TTITLE3=Great Divide, The - Break In The Storm
TTITLE4=Bogguss, Suzy - From Where I Stand
TTITLE5=Harling, Keith - Write It In Stone
TTITLE6=Brooks and Yearwood - Wild As The Wind
TTITLE7=Brooks, Garth - Tearin' It Up And Burnin' It Down
TTITLE8=Carpenter, Mary Chapin - It's Only Love
TTITLE9=Holmes, Monty - Leave My Mama Out Of This
TTITLE10=Chesney, Kenny - How Forever Feels
TTITLE11=Dixie Chicks - You Were Mine
TTITLE12=Byrd, Tracy - When Mama Ain't Happy
TTITLE13=Herndon, Ty - Hands Of A Working Man
TTITLE14=Womack, Lee Ann - I'll Think Of A Reason Later
EXTD=Label=Chartbuster Pro CDG-60000+
EXTT0=
EXTT1=
EXTT2=
EXTT3=
EXTT4=
EXTT5=
EXTT6=
EXTT7=
EXTT8=
EXTT9=
EXTT10=
EXTT11=
EXTT12=
EXTT13=
EXTT14=
PLAYORDER=
